<?xml version="1.0" standalone="no"?>
<!DOCTYPE svg PUBLIC "-//W3C//DTD SVG 20010904//EN"
 "http://www.w3.org/TR/2001/REC-SVG-20010904/DTD/svg10.dtd">
<svg version="1.0" xmlns="http://www.w3.org/2000/svg"
 width="980.000000pt" height="980.000000pt" viewBox="0 0 980.000000 980.000000"
 preserveAspectRatio="xMidYMid meet">

<g transform="translate(0.000000,980.000000) scale(0.100000,-0.100000)"
fill="#000000" stroke="none">
<path d="M0 4900 l0 -4900 4900 0 4900 0 0 4900 0 4900 -4900 0 -4900 0 0
-4900z m5190 2286 c576 -72 1111 -360 1488 -801 126 -147 259 -348 339 -512
36 -74 63 -136 60 -139 -3 -3 -26 37 -52 88 -172 338 -445 634 -769 835 -844
523 -1933 394 -2630 -312 -161 -162 -280 -327 -383 -530 l-58 -115 -233 0
-233 0 6 23 c18 63 156 322 230 432 384 570 973 937 1650 1029 135 19 443 19
585 2z m148 -367 c600 -65 1131 -390 1455 -889 56 -87 117 -201 117 -220 0 -6
-68 -10 -193 -10 l-194 0 -52 85 c-99 162 -240 325 -391 453 -179 150 -455
289 -699 352 -272 69 -617 69 -893 -1 -199 -50 -431 -157 -598 -276 -184 -132
-375 -336 -481 -515 -29 -49 -56 -88 -60 -88 -13 0 93 185 158 278 321 453
814 752 1367 827 116 16 339 18 464 4z m-1454 -1336 c-9 -16 -61 -87 -115
-160 l-98 -132 -348 -3 c-347 -3 -348 -3 -398 -28 -78 -38 -141 -107 -161
-176 -53 -184 60 -344 263 -374 37 -5 161 -10 276 -10 l207 0 0 60 0 60 -227
0 -228 1 -110 141 c-60 78 -111 145 -113 150 -2 4 231 8 517 8 l521 0 0 -366
0 -365 -472 3 c-464 3 -474 4 -543 27 -243 80 -404 249 -451 471 -30 139 -4
299 68 421 56 96 183 199 301 245 126 50 160 52 661 53 l468 1 -18 -27z m1394
-1 c218 -66 336 -184 364 -365 27 -173 -56 -337 -216 -427 -31 -18 -56 -36
-54 -40 2 -4 82 -76 178 -160 96 -84 186 -163 200 -176 l25 -24 -261 0 -261 0
-171 150 -171 151 -233 0 c-128 -1 -241 -1 -250 -1 -16 0 -18 -14 -18 -150 l0
-150 -180 0 -180 0 0 310 0 309 543 4 c585 3 590 4 647 57 59 55 43 152 -30
195 -34 19 -53 20 -592 23 -348 2 -558 6 -558 12 0 8 69 105 197 278 l25 33
461 -3 c443 -4 465 -5 535 -26z m2060 20 c-1 -5 -52 -77 -113 -160 l-110 -152
-432 0 c-431 0 -432 0 -444 -21 -8 -15 -8 -28 -1 -44 l11 -23 378 -4 c413 -5
420 -6 547 -70 285 -144 280 -538 -9 -678 -123 -60 -126 -60 -759 -58 l-577 3
111 150 110 150 448 5 c389 4 452 7 484 22 76 34 83 98 16 135 -30 16 -73 19
-433 23 -384 5 -403 7 -464 28 -178 64 -271 177 -271 332 0 46 7 94 17 124 24
65 97 145 171 184 111 59 121 60 750 61 316 1 572 -3 570 -7z m-4103 -1504
c296 -607 919 -1059 1591 -1152 587 -81 1151 67 1616 426 109 85 271 243 350
344 75 94 175 249 229 354 52 101 48 94 53 89 8 -7 -99 -222 -159 -319 -386
-627 -1015 -1037 -1725 -1126 -134 -17 -400 -18 -538 -3 -429 46 -865 226
-1207 497 -175 139 -365 347 -499 547 -60 90 -205 366 -221 423 l-6 22 233 0
234 0 49 -102z m3675 85 c-1 -10 -26 -62 -58 -116 -211 -360 -495 -625 -855
-797 -616 -294 -1307 -263 -1890 83 -256 153 -511 404 -663 655 -75 124 -106
182 -96 182 6 0 26 -28 45 -63 100 -177 312 -407 497 -539 99 -70 278 -167
390 -211 331 -130 753 -156 1101 -67 456 117 845 404 1091 806 l51 84 194 0
c177 0 193 -1 193 -17z"/>
</g>
</svg>
