<?xml version="1.0" standalone="no"?>
<!DOCTYPE svg PUBLIC "-//W3C//DTD SVG 20010904//EN"
 "http://www.w3.org/TR/2001/REC-SVG-20010904/DTD/svg10.dtd">
<svg version="1.0" xmlns="http://www.w3.org/2000/svg"
 width="24.000000pt" height="24.000000pt" viewBox="0 0 24.000000 24.000000"
 preserveAspectRatio="xMidYMid meet">

<g transform="translate(0.000000,24.000000) scale(0.100000,-0.100000)"
fill="#000000" stroke="none">
<path d="M77 181 c-37 -38 -57 -68 -57 -83 0 -29 67 -98 96 -98 22 0 64 38 64
58 0 17 -25 15 -40 -3 -17 -21 -33 -19 -58 8 -28 30 -28 48 1 75 29 27 39 27
62 2 18 -19 17 -20 -6 -20 -13 0 -31 -5 -39 -10 -27 -17 4 -31 60 -28 57 3 78
23 37 33 -17 5 -23 12 -20 24 2 9 -5 25 -16 35 -16 14 -18 22 -10 32 11 13 5
34 -10 34 -4 0 -33 -27 -64 -59z m63 24 c-10 -12 -8 -18 11 -34 13 -11 21 -23
17 -27 -5 -4 -16 0 -26 9 -25 23 -34 21 -65 -11 -34 -35 -34 -49 0 -84 30 -31
54 -36 73 -13 7 9 15 13 18 10 10 -10 -31 -45 -54 -45 -25 0 -84 61 -84 88 0
17 110 135 118 127 3 -2 -1 -11 -8 -20z m65 -105 c4 -6 -15 -10 -50 -10 -35 0
-54 4 -50 10 8 13 92 13 100 0z"/>
</g>
</svg>
